<svg id="图层_1" data-name="图层 1" xmlns="http://www.w3.org/2000/svg" xmlns:xlink="http://www.w3.org/1999/xlink" viewBox="0 0 1022.25 188.17"><defs><style>.cls-1{fill:url(#新建渐变色板_1);}.cls-2{fill:#4e4540;}</style><linearGradient id="新建渐变色板_1" x1="78.3" y1="187.29" x2="78.3" y2="1.08" gradientUnits="userSpaceOnUse"><stop offset="0" stop-color="#007ba1"/><stop offset="1" stop-color="#12c1bf"/></linearGradient></defs><path class="cls-1" d="M56,73.25h67.84c.84-8.79-6.71-26.26-21.92-35.09A46,46,0,0,0,48.23,43,44.82,44.82,0,0,0,32.59,71.7c-1.59,11.56,1,22.14,7.35,32.23H37.55c-9.85,0-19.71,0-29.56.06-1.87,0-2.57-.75-3.06-2.35A70.78,70.78,0,0,1,1.42,80.5,113.21,113.21,0,0,1,3.19,61.87,67.14,67.14,0,0,1,13.8,36,76.84,76.84,0,0,1,40.57,11,74.07,74.07,0,0,1,80.32,1.14c22.61.9,41.66,9.71,56.54,27a76.14,76.14,0,0,1,17.68,59.32c-.6,4.64-1.86,9.19-2.79,13.79-.37,1.83-1.22,2.63-3.28,2.62-20.34-.08-40.69,0-61-.1a4,4,0,0,1-2.59-1c-6.57-6.53-13-13.16-19.59-19.72-3.15-3.16-6.39-6.22-9.59-9.33ZM11.46,120s7.63,7.9,10.84,11.14c16,16.17,32.1,32.18,48.15,48.27,2.61,2.62,5.1,5.35,7.47,7.85L145.15,120H142.9c-13.09,0-26.19,0-39.28,0a4.7,4.7,0,0,0-3.67,1.49C93.21,128.26,86.41,135,79.7,141.81c-1,1.05-1.51,1.19-2.61.06-6.71-6.82-13.51-13.55-20.26-20.34A4.61,4.61,0,0,0,53.19,120c-7.6.1-15.2,0-22.8,0H13.94Z"/><path class="cls-2" d="M294.47,82.14l-7.14,21.32h-77v18.76h90.79l-7.8,23.32H181.77V40.8H301.11l-7.8,23.33h-83v18Z"/><path class="cls-2" d="M423.69,40.8H456L397.8,145.54H366L307.75,40.8h33.11l41.42,77.52Z"/><path class="cls-2" d="M582.71,145.54H504c-11.7,0-21.08-3.48-28.3-10.54-7.06-7-10.54-15.1-10.54-24.32v-35c0-9.46,3.48-17.59,10.46-24.48S492.08,40.8,504,40.8h86.48l-7.72,23H511.25a18.84,18.84,0,0,0-12.61,4.4,14.62,14.62,0,0,0-4.82,11.46V106.2a14.38,14.38,0,0,0,4.9,11.37,19.11,19.11,0,0,0,12.53,4.32h79.18Z"/><path class="cls-2" d="M635,24.79V145.54H608.69V40.8Z"/><path class="cls-2" d="M654.91,94.83c0-8.21,3.33-15.35,10.05-21.41a33.28,33.28,0,0,1,23.32-9.13h46.39A33.26,33.26,0,0,1,758,73.42c6.73,6,10,13,10,21.25v20.5c0,8.13-3.31,15.18-10,21.24a34.16,34.16,0,0,1-23.57,9.13H688.53A34.18,34.18,0,0,1,665,136.41c-6.72-6.22-10.05-13.36-10.05-21.41Zm26.23,16.52a12,12,0,0,0,3.74,8.46,13.16,13.16,0,0,0,9.79,3.82h33.61c4.15,0,7.39-1.24,9.8-3.82a11.48,11.48,0,0,0,3.73-8.3V98a11.2,11.2,0,0,0-3.73-8.3c-2.41-2.58-5.65-3.82-9.8-3.82H694.67a12.9,12.9,0,0,0-9.79,3.82,11.68,11.68,0,0,0-3.74,8.46Z"/><path class="cls-2" d="M812.52,64.29v47.22a11.48,11.48,0,0,0,3.74,9,14.3,14.3,0,0,0,9.79,3.32h35.52V64.29H887.8v81.25H867.38l-3.82-10.21c-5,6.81-11.2,10.21-18.75,10.21h-24.9a34.16,34.16,0,0,1-23.57-9.13c-6.72-6.22-10-13.36-10-21.41V64.29Z"/><path class="cls-2" d="M1000.5,145.54l-4-10.12c-5,6.72-11.2,10.12-18.76,10.12H941.33a34.18,34.18,0,0,1-23.57-9.13c-6.72-6.22-10-13.36-10-21.41V94.83c0-8.21,3.32-15.35,10-21.41a33.3,33.3,0,0,1,23.32-9.13h36.85c6.72,0,13,3.4,18.59,10.21-1.16-1.83-1.83-4.9-1.91-9.3V40.8l26.22-16V145.54Zm-5.89-59.67H947.47a14.3,14.3,0,0,0-9.79,3.32,11.23,11.23,0,0,0-3.74,9v13.36a11.09,11.09,0,0,0,3.82,8.88,14.58,14.58,0,0,0,9.71,3.24h47.14Z"/></svg>