<svg id="图层_1" data-name="图层 1" xmlns="http://www.w3.org/2000/svg" viewBox="0 0 598.38 303.46"><path d="M279.75,73.78h67.84c.84-8.79-6.71-26.26-21.92-35.08A46,46,0,0,0,272,43.57a44.79,44.79,0,0,0-15.64,28.67c-1.6,11.56,1,22.13,7.35,32.23h-2.39c-9.85,0-19.71,0-29.56.06-1.87,0-2.57-.76-3.07-2.36A71,71,0,0,1,225.15,81a113.31,113.31,0,0,1,1.77-18.63,67,67,0,0,1,10.61-25.88,77,77,0,0,1,26.77-25,74.14,74.14,0,0,1,39.75-9.84c22.6.9,41.65,9.72,56.54,27A76.08,76.08,0,0,1,378.26,88c-.59,4.64-1.86,9.19-2.78,13.79-.37,1.83-1.22,2.63-3.28,2.62-20.34-.08-40.69,0-61-.09a4,4,0,0,1-2.59-1C302,96.84,295.53,90.21,289,83.65c-3.15-3.16-6.39-6.22-9.6-9.32Zm-44.56,46.78s7.63,7.9,10.84,11.15c16,16.16,32.1,32.17,48.15,48.27,2.6,2.61,5.09,5.34,7.47,7.84l67.23-67.27h-2.25c-13.1,0-26.19,0-39.28,0a4.68,4.68,0,0,0-3.67,1.5c-6.74,6.78-13.55,13.51-20.25,20.33-1,1.06-1.51,1.19-2.62.07-6.7-6.83-13.51-13.56-20.25-20.34a4.62,4.62,0,0,0-3.64-1.57c-7.6.11-15.2,0-22.81,0H235.19Z"/><path d="M82.3,255.71l-5,15H22.9V284H87l-5.51,16.46H2.75V226.53H87L81.48,243H22.9v12.72Z"/><path d="M173.52,226.53h22.79l-41.07,73.93H132.81L91.68,226.53h23.38l29.23,54.72Z"/><path d="M285.77,300.46h-55.6c-8.25,0-14.87-2.46-20-7.44s-7.44-10.66-7.44-17.16V251.14a23.44,23.44,0,0,1,7.38-17.28c5-4.87,11.66-7.33,20-7.33h61l-5.44,16.23H235.33a13.24,13.24,0,0,0-8.9,3.11A10.28,10.28,0,0,0,223,254v18.74a10.17,10.17,0,0,0,3.45,8,13.54,13.54,0,0,0,8.85,3h55.88Z"/><path d="M322.68,215.23v85.23H304.11V226.53Z"/><path d="M336.74,264.67c0-5.8,2.35-10.84,7.09-15.11a23.49,23.49,0,0,1,16.46-6.45H393a23.5,23.5,0,0,1,16.46,6.45c4.74,4.21,7.09,9.19,7.09,15V279c0,5.74-2.35,10.72-7.09,15a24.16,24.16,0,0,1-16.64,6.44H360.47A24.16,24.16,0,0,1,343.83,294c-4.74-4.4-7.09-9.44-7.09-15.12Zm18.51,11.66a8.42,8.42,0,0,0,2.64,6A9.3,9.3,0,0,0,364.8,285h23.73a8.94,8.94,0,0,0,6.91-2.69,8.07,8.07,0,0,0,2.63-5.86v-9.55a7.88,7.88,0,0,0-2.63-5.85,8.94,8.94,0,0,0-6.91-2.7H364.8a9.12,9.12,0,0,0-6.91,2.7,8.22,8.22,0,0,0-2.64,6Z"/><path d="M448,243.11v33.33a8.09,8.09,0,0,0,2.64,6.33,10.08,10.08,0,0,0,6.91,2.34h25.07v-42h18.51v57.35H486.71L484,293.25c-3.52,4.81-7.91,7.21-13.24,7.21H453.21A24.15,24.15,0,0,1,436.57,294c-4.74-4.4-7.09-9.44-7.09-15.12V243.11Z"/><path d="M580.68,300.46l-2.81-7.15c-3.52,4.75-7.91,7.15-13.24,7.15H538.91A24.14,24.14,0,0,1,522.28,294c-4.75-4.4-7.09-9.44-7.09-15.12V264.67c0-5.8,2.34-10.84,7.09-15.11a23.49,23.49,0,0,1,16.46-6.45h26c4.74,0,9.14,2.4,13.12,7.21-.82-1.29-1.29-3.46-1.35-6.56V226.53L595,215.23v85.23Zm-4.16-42.12H543.25a10,10,0,0,0-6.91,2.35A7.91,7.91,0,0,0,533.7,267v9.43a7.82,7.82,0,0,0,2.7,6.27,10.3,10.3,0,0,0,6.85,2.28h33.27Z"/></svg>