<svg id="图层_1" data-name="图层 1" xmlns="http://www.w3.org/2000/svg" xmlns:xlink="http://www.w3.org/1999/xlink" viewBox="0 0 597.06 303.51"><defs><style>.cls-1{fill:url(#新建渐变色板_1);}.cls-2{fill:#4e4540;}</style><linearGradient id="新建渐变色板_1" x1="301.98" y1="188" x2="301.98" y2="1.79" gradientUnits="userSpaceOnUse"><stop offset="0" stop-color="#007ba1"/><stop offset="1" stop-color="#12c1bf"/></linearGradient></defs><path class="cls-1" d="M279.7,74h67.84c.84-8.79-6.71-26.26-21.92-35.09a46,46,0,0,0-53.71,4.87,44.86,44.86,0,0,0-15.64,28.67c-1.59,11.56,1,22.14,7.35,32.23h-2.38c-9.86,0-19.72,0-29.57.06-1.87,0-2.57-.75-3.06-2.35a70.78,70.78,0,0,1-3.51-21.14,113.21,113.21,0,0,1,1.77-18.63A67.14,67.14,0,0,1,237.48,36.7a76.93,76.93,0,0,1,26.77-25A74.07,74.07,0,0,1,304,1.85c22.61.89,41.66,9.71,56.55,27a76.22,76.22,0,0,1,17.67,59.33c-.6,4.63-1.86,9.19-2.79,13.79-.37,1.82-1.22,2.63-3.28,2.62-20.34-.08-40.68,0-61-.1a4,4,0,0,1-2.59-1C302,97,295.49,90.39,289,83.83c-3.15-3.16-6.4-6.22-9.6-9.33Zm-44.56,46.78s7.64,7.9,10.84,11.14c16,16.17,32.1,32.18,48.15,48.27,2.61,2.62,5.1,5.35,7.47,7.85l67.23-67.28h-2.25c-13.09,0-26.18,0-39.28,0a4.7,4.7,0,0,0-3.67,1.49c-6.74,6.79-13.54,13.51-20.24,20.34-1,1-1.52,1.19-2.62.06-6.71-6.82-13.51-13.55-20.26-20.34a4.61,4.61,0,0,0-3.64-1.56c-7.6.1-15.2,0-22.8,0H237.62Z"/><path class="cls-2" d="M82.26,255.88l-5,15.06H22.86v13.24H86.94l-5.5,16.46H2.71V226.71H86.94l-5.5,16.46H22.86v12.71Z"/><path class="cls-2" d="M173.47,226.71h22.79L155.2,300.64H132.76L91.64,226.71H115l29.23,54.71Z"/><path class="cls-2" d="M285.72,300.64H230.13c-8.26,0-14.88-2.46-20-7.44s-7.44-10.66-7.44-17.17V251.31A23.46,23.46,0,0,1,210.09,234c5-4.86,11.66-7.32,20-7.32h61l-5.45,16.23H235.28a13.29,13.29,0,0,0-8.9,3.1,10.34,10.34,0,0,0-3.4,8.08v18.75a10.16,10.16,0,0,0,3.46,8,13.49,13.49,0,0,0,8.84,3h55.89Z"/><path class="cls-2" d="M322.63,215.4v85.24H304.06V226.71Z"/><path class="cls-2" d="M336.7,264.84c0-5.79,2.34-10.83,7.08-15.11a23.49,23.49,0,0,1,16.46-6.44H393a23.48,23.48,0,0,1,16.46,6.44c4.75,4.22,7.09,9.2,7.09,15V279.2c0,5.74-2.34,10.72-7.09,15a24.11,24.11,0,0,1-16.64,6.45H360.42a24.13,24.13,0,0,1-16.64-6.45c-4.74-4.39-7.08-9.43-7.08-15.11Zm18.51,11.66a8.47,8.47,0,0,0,2.63,6,9.34,9.34,0,0,0,6.92,2.69h23.72a9,9,0,0,0,6.91-2.69,8.09,8.09,0,0,0,2.64-5.86v-9.55a7.89,7.89,0,0,0-2.64-5.86,9,9,0,0,0-6.91-2.69H364.76a9.17,9.17,0,0,0-6.92,2.69,8.27,8.27,0,0,0-2.63,6Z"/><path class="cls-2" d="M448,243.29v33.33a8.11,8.11,0,0,0,2.63,6.33,10.1,10.1,0,0,0,6.91,2.34h25.08v-42h18.51v57.35H486.67l-2.7-7.21c-3.51,4.8-7.91,7.21-13.24,7.21H453.16a24.13,24.13,0,0,1-16.64-6.45c-4.74-4.39-7.08-9.43-7.08-15.11V243.29Z"/><path class="cls-2" d="M580.63,300.64l-2.81-7.15c-3.51,4.74-7.91,7.15-13.24,7.15H538.87a24.13,24.13,0,0,1-16.64-6.45c-4.74-4.39-7.09-9.43-7.09-15.11V264.84c0-5.79,2.35-10.83,7.09-15.11a23.49,23.49,0,0,1,16.46-6.44h26c4.75,0,9.14,2.4,13.12,7.2-.82-1.29-1.29-3.45-1.34-6.56V226.71L595,215.4v85.24Zm-4.15-42.12H543.2a10.1,10.1,0,0,0-6.91,2.34,7.92,7.92,0,0,0-2.64,6.33v9.43a7.83,7.83,0,0,0,2.7,6.27,10.3,10.3,0,0,0,6.85,2.28h33.28Z"/></svg>