<svg id="图层_1" data-name="图层 1" xmlns="http://www.w3.org/2000/svg" xmlns:xlink="http://www.w3.org/1999/xlink" viewBox="0 0 156.81 188.24"><defs><style>.cls-1{fill:url(#新建渐变色板_1);}</style><linearGradient id="新建渐变色板_1" x1="78.36" y1="187.7" x2="78.36" y2="1.49" gradientUnits="userSpaceOnUse"><stop offset="0" stop-color="#007ba1"/><stop offset="1" stop-color="#12c1bf"/></linearGradient></defs><path class="cls-1" d="M56.08,73.66h67.84c.84-8.79-6.71-26.26-21.92-35.08a46,46,0,0,0-53.71,4.86A44.84,44.84,0,0,0,32.65,72.12c-1.6,11.55,1,22.13,7.35,32.23H37.61c-9.86,0-19.71,0-29.57.06-1.87,0-2.56-.76-3.06-2.36a71,71,0,0,1-3.5-21.14A114.29,114.29,0,0,1,3.24,62.28,67.14,67.14,0,0,1,13.85,36.4a77,77,0,0,1,26.78-25A74.12,74.12,0,0,1,80.38,1.55c22.6.9,41.65,9.72,56.54,27a76.08,76.08,0,0,1,17.67,59.32c-.6,4.64-1.86,9.19-2.78,13.79-.37,1.83-1.23,2.63-3.28,2.62-20.35-.08-40.69,0-61-.09a4.06,4.06,0,0,1-2.6-1c-6.57-6.53-13-13.16-19.58-19.72-3.15-3.16-6.39-6.22-9.6-9.32ZM11.51,120.44s7.64,7.9,10.85,11.14c16,16.17,32.1,32.18,48.14,48.27,2.61,2.62,5.1,5.35,7.48,7.85,22.62-22.63,44.84-44.88,67.23-67.27H143c-13.09,0-26.18,0-39.27,0a4.66,4.66,0,0,0-3.67,1.5c-6.74,6.78-13.55,13.51-20.25,20.33-1,1.06-1.52,1.19-2.62.07-6.7-6.83-13.51-13.56-20.25-20.34a4.63,4.63,0,0,0-3.64-1.57c-7.6.1-15.21.05-22.81.05H11.51Z"/></svg>